<?xml version="1.0" encoding="UTF-8"?>
<svg id="Calque_1" data-name="Calque 1" xmlns="http://www.w3.org/2000/svg" viewBox="0 0 104.23 114.36">
  <defs>
    <style>
      .cls-1 {
        fill: none;
      }

      .cls-2 {
        fill: #22284e;
      }

      .cls-3 {
        fill: #29509e;
      }

      .cls-4 {
        fill: #1e1e1c;
      }

      .cls-5 {
        fill: #e84142;
      }
    </style>
  </defs>
  <path class="cls-1" d="M18.06,74.91s.07-.07.1-.1c-.03.03-.07.07-.1.1Z"/>
  <path class="cls-1" d="M17.48,75.55s-.06.07-.08.1c.03-.03.05-.07.08-.1Z"/>
  <path class="cls-1" d="M18.85,74.15c-.06.05-.11.1-.17.15.06-.05.11-.1.17-.15Z"/>
  <path class="cls-1" d="M16.92,76.25s-.05.07-.08.1c.03-.04.05-.07.08-.1Z"/>
  <path class="cls-2" d="M17.4,75.65c-.16.2-.32.4-.47.6.15-.2.31-.41.47-.6Z"/>
  <path class="cls-2" d="M19.52,73.6c-.23.18-.45.37-.67.56.22-.19.44-.38.67-.56Z"/>
  <path class="cls-2" d="M17.48,75.55c.19-.22.38-.43.58-.64-.2.21-.39.42-.58.64Z"/>
  <path class="cls-2" d="M18.68,74.31c-.18.16-.35.33-.52.5.17-.17.34-.34.52-.5Z"/>
  <path class="cls-3" d="M87.31,78.39l-.02-.02s0,0,0,0c0,0-14.83-19.92-19.22-25.77,3.5,5.78,2.19,13.38-3.28,17.62h0s-.03.02-.03.02h0s-.03.03-.09.07c-.64.54-5.06,4.3-10.28,8.73,5.88,7.79,13.08,17.33,13.08,17.33h0s.02.02.02.02h0c4.98,5.45,13.43,5.85,18.9.89,5.46-4.97,5.87-13.42.92-18.9Z"/>
  <path class="cls-5" d="M17.4,75.65s.05-.07.08-.1c.19-.22.38-.43.58-.64.03-.03.07-.07.1-.1.17-.17.34-.34.52-.5.06-.05.11-.1.17-.15.22-.19.44-.38.67-.56.36-.28,19.83-16.63,26.61-22.32.46-.57.96-1.12,1.52-1.63,1.29-1.17,2.74-2.05,4.27-2.64,1.53-.59,3.14-.9,4.76-.92,1.36.01,2.71.23,4.01.65,1.3.42,2.53,1.03,3.67,1.84.03.02.07.05.1.08l7.92-13.3c.33-.43.65-.88.93-1.36,3.82-6.41,1.72-14.69-4.68-18.5-6.4-3.81-14.69-1.71-18.5,4.69-.29.48-.53.97-.75,1.47l-33.19,55.71s0,0,0,0l-.02.03h0c-.04.06-.06.12-.1.18.24-.42.5-.82.78-1.22.03-.04.05-.07.08-.1.15-.2.31-.41.47-.6Z"/>
  <path class="cls-4" d="M60.68,46.75c-1.3-.42-2.65-.64-4.01-.65-1.61.02-3.23.33-4.76.92-1.53.59-2.98,1.47-4.27,2.64-.56.51-1.06,1.05-1.52,1.63-4.11,5.17-3.99,12.7.6,17.75.03.03.34.43.75.96.17.21.35.45.54.69.09.12.19.24.28.36.38.49.76.97,1.04,1.34.28.36.47.6.47.6.03.04.05.07.08.11,1.14,1.5,2.53,3.34,4.01,5.3.17.22.33.44.49.64,0,0,0,0,0,0,5.17-4.38,9.63-8.17,10.29-8.73.05-.04.09-.07.09-.07h0l.03-.02h0c5.46-4.24,6.78-11.85,3.28-17.62-.26-.43-.55-.86-.87-1.27-.2-.26-.41-.51-.63-.75-.43-.48-.89-.93-1.38-1.33-.24-.2-.49-.4-.74-.58-.03-.02-.07-.05-.1-.08-1.13-.81-2.37-1.42-3.67-1.84Z"/>
  <path class="cls-2" d="M54.39,79.04s0,0,0,0c-.15-.2-.32-.42-.49-.64-1.48-1.96-2.87-3.8-4.01-5.3-.03-.04-.05-.07-.08-.11,0,0-.19-.24-.47-.6-.28-.36-.66-.85-1.04-1.34-.09-.12-.19-.24-.28-.36-.19-.24-.37-.48-.54-.69-.42-.53-.73-.93-.75-.96-4.59-5.05-4.71-12.58-.6-17.75-6.77,5.69-26.25,22.04-26.61,22.32-.23.18-.45.37-.67.56-.06.05-.11.1-.17.15-.18.16-.35.33-.52.5-.03.03-.07.07-.1.1-.2.21-.39.42-.58.64-.03.03-.06.07-.08.1-.16.2-.32.4-.47.6-.03.03-.05.07-.08.1-.34.47-.64.95-.91,1.45-.03.05-.05.1-.08.15-.27.52-.51,1.05-.71,1.59-1.54,4.17-.96,9.02,1.96,12.8,4.51,5.84,12.9,6.92,18.75,2.4.06-.04.57-.48,1.43-1.2,1.72-1.46,10.03-8.5,17.07-14.47,0,0,0,0,0,0,.01-.01.03-.02.04-.03,0,0,0,0,0,0Z"/>
</svg>